# xmcd CD database file
#
# Track frame offsets:
#	150
#	22080
#	38165
#	57215
#	87005
#	97737
#	115522
#	133142
#	158562
#
# Disc length: 2591 seconds
#
# Revision: 9
# Processed by: cddbd v1.5.2PL0 Copyright (c) Steve Scherf et al.
# Submitted via: CDex 1.51
#
DISCID=620a1d09
DTITLE=Bobby McFerrin - Jazz Masters
DYEAR=1995
DGENRE=Jazz
TTITLE0=Don't Worry, Be Happy  (1988)
TTITLE1=Turtle Shoes  (1986)
TTITLE2=Another Night In Tunisia  [with Jon Hendricks and Manhattan Transfer]
TTITLE3=Even For Me  [with Chick Corea]  (1987)
TTITLE4=Mañana Iguana  (1986)
TTITLE5=Drive  (1986)
TTITLE6=I Hear Music  (1986)
TTITLE7=Walkin'  (1986)
TTITLE8='Round Midnight  [with Chick Corea]  (1987)
EXTD=Cema - JazzTime series\n\nS21-56915\n\nDate: 1993 YEAR: 1995
EXTT0=
EXTT1=
EXTT2=
EXTT3=
EXTT4=
EXTT5=
EXTT6=
EXTT7=
EXTT8=
PLAYORDER=
